<svg width="14" height="14" viewBox="0 0 14 14" fill="none" xmlns="http://www.w3.org/2000/svg">
<g id="send_major">
<path id="Primary fill" d="M2.17508 1.8827C2.35521 1.75287 2.59535 1.74276 2.78575 1.857L11.1191 6.857C11.2864 6.95741 11.3888 7.13824 11.3888 7.33339C11.3888 7.52854 11.2864 7.70937 11.1191 7.80977L2.78575 12.8098C2.59535 12.924 2.35521 12.9139 2.17508 12.7841C1.99495 12.6542 1.90942 12.4296 1.95759 12.2129L2.91846 7.88894L5.83323 7.88894C6.14005 7.88894 6.38878 7.64021 6.38878 7.33339C6.38878 7.02656 6.14005 6.77783 5.83323 6.77783L2.91846 6.77783L1.95759 2.45391C1.90942 2.23715 1.99495 2.01253 2.17508 1.8827Z" fill="white"/>
</g>
</svg>
