<svg width="22" height="22" viewBox="0 0 22 22" fill="none" xmlns="http://www.w3.org/2000/svg">
<g clip-path="url(#clip0_64_106)">
<path d="M18.6291 3.66669H7.62907C5.60324 3.66669 3.9624 5.30752 3.9624 7.33335V14.6667C3.9624 16.6925 5.60324 18.3334 7.62907 18.3334H18.6291C20.6549 18.3334 22.2957 16.6925 22.2957 14.6667V7.33335C22.2957 5.30752 20.6549 3.66669 18.6291 3.66669ZM16.9241 12.6225C16.7041 12.8059 16.4016 12.8792 16.1174 12.8059L5.93324 10.3125C6.20824 9.64335 6.85907 9.16669 7.62907 9.16669H18.6291C19.2432 9.16669 19.7841 9.47835 20.1232 9.93669L16.9241 12.6225ZM7.62907 5.50002H18.6291C19.6374 5.50002 20.4624 6.32502 20.4624 7.33335V7.83752C19.9216 7.52585 19.2982 7.33335 18.6291 7.33335H7.62907C6.9599 7.33335 6.33657 7.52585 5.79574 7.83752V7.33335C5.79574 6.32502 6.62074 5.50002 7.62907 5.50002Z" fill="#0081DE"/>
</g>
<defs>
<clipPath id="clip0_64_106">
<rect width="22" height="22" fill="white"/>
</clipPath>
</defs>
</svg>
