<svg width="27" height="27" viewBox="0 0 27 27" fill="none" xmlns="http://www.w3.org/2000/svg">
<g id="mdi:cash-refund">
<path id="Vector" d="M13.8375 10.0463L11.115 7.3125H17.4375V11.25H19.125V5.625H11.115L13.8375 2.89125L12.645 1.6875L7.875 6.46875L12.645 11.25L13.8375 10.0463ZM13.5 15.75C12.8325 15.75 12.18 15.9479 11.625 16.3188C11.0699 16.6896 10.6374 17.2167 10.3819 17.8334C10.1265 18.4501 10.0596 19.1287 10.1898 19.7834C10.3201 20.4381 10.6415 21.0395 11.1135 21.5115C11.5855 21.9835 12.1869 22.3049 12.8416 22.4352C13.4963 22.5654 14.1749 22.4985 14.7916 22.2431C15.4083 21.9876 15.9354 21.5551 16.3062 21C16.6771 20.445 16.875 19.7925 16.875 19.125C16.875 18.2299 16.5194 17.3714 15.8865 16.7385C15.2536 16.1056 14.3951 15.75 13.5 15.75ZM3.375 12.375V25.875H23.625V12.375M21.375 21.375C20.7783 21.375 20.206 21.6121 19.784 22.034C19.3621 22.456 19.125 23.0283 19.125 23.625H7.875C7.875 23.0283 7.63795 22.456 7.21599 22.034C6.79403 21.6121 6.22174 21.375 5.625 21.375V16.875C6.22174 16.875 6.79403 16.6379 7.21599 16.216C7.63795 15.794 7.875 15.2217 7.875 14.625H19.125C19.125 15.2217 19.3621 15.794 19.784 16.216C20.206 16.6379 20.7783 16.875 21.375 16.875V21.375Z" fill="#004D85"/>
</g>
</svg>
