<svg width="12" height="12" viewBox="0 0 12 12" fill="none" xmlns="http://www.w3.org/2000/svg">
<g id="octicon:person-16">
<path id="Vector" d="M7.92074 6.05478C8.65914 6.4038 9.28873 6.94703 9.74214 7.62635C10.1955 8.30566 10.4557 9.09549 10.4947 9.91128C10.4999 9.98602 10.4901 10.061 10.4658 10.1319C10.4416 10.2028 10.4034 10.2681 10.3536 10.3241C10.3038 10.38 10.2433 10.4254 10.1757 10.4577C10.108 10.4899 10.0347 10.5083 9.95982 10.5118C9.88499 10.5153 9.81021 10.5038 9.73988 10.478C9.66955 10.4522 9.60508 10.4127 9.55025 10.3616C9.49543 10.3106 9.45135 10.2491 9.42061 10.1808C9.38987 10.1124 9.37308 10.0387 9.37124 9.96378C9.33035 9.09717 8.95731 8.2796 8.32956 7.68076C7.70181 7.08193 6.86756 6.74784 5.99999 6.74784C5.13242 6.74784 4.29817 7.08193 3.67041 7.68076C3.04266 8.2796 2.66962 9.09717 2.62874 9.96378C2.61863 10.1105 2.5515 10.2474 2.4417 10.3452C2.33191 10.443 2.18818 10.4939 2.04131 10.487C1.89444 10.4802 1.75609 10.4161 1.65589 10.3084C1.5557 10.2008 1.50162 10.0583 1.50524 9.91128C1.54413 9.09554 1.80414 8.30574 2.25741 7.62642C2.71069 6.9471 3.34018 6.40383 4.07849 6.05478C3.60525 5.66005 3.26509 5.12912 3.10428 4.53421C2.94347 3.93931 2.96981 3.30931 3.17974 2.72991C3.38966 2.1505 3.77296 1.64983 4.27751 1.29599C4.78206 0.942151 5.38335 0.752319 5.99961 0.752319C6.61587 0.752319 7.21717 0.942151 7.72171 1.29599C8.22626 1.64983 8.60957 2.1505 8.81949 2.72991C9.02941 3.30931 9.05576 3.93931 8.89495 4.53421C8.73414 5.12912 8.39398 5.66005 7.92074 6.05478ZM7.87499 3.75003C7.87499 3.25275 7.67744 2.77584 7.32581 2.4242C6.97418 2.07257 6.49727 1.87503 5.99999 1.87503C5.50271 1.87503 5.02579 2.07257 4.67416 2.4242C4.32253 2.77584 4.12499 3.25275 4.12499 3.75003C4.12499 4.24731 4.32253 4.72422 4.67416 5.07586C5.02579 5.42749 5.50271 5.62503 5.99999 5.62503C6.49727 5.62503 6.97418 5.42749 7.32581 5.07586C7.67744 4.72422 7.87499 4.24731 7.87499 3.75003Z" fill="#004D85"/>
</g>
</svg>
