<svg width="21" height="21" viewBox="0 0 21 21" fill="none" xmlns="http://www.w3.org/2000/svg">
<g id="Group">
<path id="Vector" d="M1 16.8333C1 17.3932 1.22242 17.9302 1.61833 18.3261C2.01424 18.722 2.55121 18.9444 3.11111 18.9444C3.67101 18.9444 4.20798 18.722 4.60389 18.3261C4.9998 17.9302 5.22222 17.3932 5.22222 16.8333C5.22222 16.2734 4.9998 15.7364 4.60389 15.3405C4.20798 14.9446 3.67101 14.7222 3.11111 14.7222C2.55121 14.7222 2.01424 14.9446 1.61833 15.3405C1.22242 15.7364 1 16.2734 1 16.8333ZM15.7778 4.16665C15.7778 4.72655 16.0002 5.26352 16.3961 5.65943C16.792 6.05534 17.329 6.27776 17.8889 6.27776C18.4488 6.27776 18.9858 6.05534 19.3817 5.65943C19.7776 5.26352 20 4.72655 20 4.16665C20 3.60675 19.7776 3.06978 19.3817 2.67387C18.9858 2.27796 18.4488 2.05554 17.8889 2.05554C17.329 2.05554 16.792 2.27796 16.3961 2.67387C16.0002 3.06978 15.7778 3.60675 15.7778 4.16665Z" stroke="#545454" stroke-linecap="round" stroke-linejoin="round"/>
<path id="Vector_2" d="M17.8889 6.27778V11.5556C17.8889 12.9553 17.3328 14.2977 16.343 15.2875C15.3533 16.2773 14.0108 16.8333 12.6111 16.8333H9.44442M9.44442 16.8333L12.6111 13.6667M9.44442 16.8333L12.6111 20M3.11108 14.7222V9.44444C3.11108 8.04469 3.66713 6.70227 4.65691 5.71249C5.64668 4.72272 6.98911 4.16667 8.38886 4.16667H11.5555M11.5555 4.16667L8.38886 1M11.5555 4.16667L8.38886 7.33333" stroke="#545454" stroke-linecap="round" stroke-linejoin="round"/>
</g>
</svg>
